# xmcd CD database file
#
# Track frame offsets:
#	150
#	14933
#	25664
#	40583
#	55137
#	68541
#	84699
#	97987
#	107016
#	121490
#	137026
#	149997
#	163843
#	175893
#	190575
#	204741
#	222854
#	236747
#	249758
#	262874
#	276160
#
# Disc length: 3847 seconds
#
# Revision: 0
# Processed by: cddbd v1.5.2PL0 Copyright (c) Steve Scherf et al.
# Submitted via: CDex 1.70beta2
#
DISCID=2f0f0515
DTITLE=Rick Nelson - The last time around CD 6
DYEAR=2010
DGENRE=Country
TTITLE0=Dream lover
TTITLE1=That's allright mama
TTITLE2=It's all over now
TTITLE3=In my heart
TTITLE4=Send my sombody to love
TTITLE5=Stuck in the middle
TTITLE6=It shall remain
TTITLE7=True love ways
TTITLE8=That ain't the way love's supposed to be
TTITLE9=Sleep tight good night man
TTITLE10=Rave on
TTITLE11=Lay back in the arms of someone
TTITLE12=Almost saturday night
TTITLE13=Dream lover (single version)
TTITLE14=Send me somebody to love (alternate mix)
TTITLE15=Lay back in the arms of someone (alt. version)
TTITLE16=Almos saturday night (alt. mix)
TTITLE17=Rave on (alternate version)
TTITLE18=Lay back in the arms of someone (EP version)
TTITLE19=Almost saturday night  (EP version)
TTITLE20=Rave on  (EP version)
EXTD=YEAR: 2010
EXTT0=
EXTT1=
EXTT2=
EXTT3=
EXTT4=
EXTT5=
EXTT6=
EXTT7=
EXTT8=
EXTT9=
EXTT10=
EXTT11=
EXTT12=
EXTT13=
EXTT14=
EXTT15=
EXTT16=
EXTT17=
EXTT18=
EXTT19=
EXTT20=
PLAYORDER=
